<svg viewBox="0 0 21 22" fill="none" xmlns="http://www.w3.org/2000/svg">
<path d="M5.5 17V15M10.5 17V14M15.5 17V12M1 11C1 6.52166 1 4.28249 2.39124 2.89124C3.78249 1.5 6.02166 1.5 10.5 1.5C14.9783 1.5 17.2175 1.5 18.6088 2.89124C20 4.28249 20 6.52166 20 11C20 15.4783 20 17.7175 18.6088 19.1088C17.2175 20.5 14.9783 20.5 10.5 20.5C6.02166 20.5 3.78249 20.5 2.39124 19.1088C1 17.7175 1 15.4783 1 11Z" stroke="black" stroke-width="1.5" stroke-linecap="round" stroke-linejoin="round"/>
<path d="M4.49219 10.4863C6.64729 10.5581 11.5341 10.2328 14.3137 5.82132M12.4923 5.28835L14.3678 4.98649C14.5964 4.95738 14.932 5.13785 15.0145 5.35298L15.5104 6.99142" stroke="black" stroke-width="1.5" stroke-linecap="round" stroke-linejoin="round"/>
</svg>
