<svg viewBox="0 0 20 22" fill="none" xmlns="http://www.w3.org/2000/svg">
<path d="M2.34085 15.8781L1.17786 8.93557C0.98869 7.8063 0.89411 7.24167 1.18537 6.87083C1.47662 6.5 2.01468 6.5 3.09079 6.5H16.9092C17.9853 6.5 18.5234 6.5 18.8146 6.87083C19.1059 7.24167 19.0113 7.8063 18.8221 8.93557L17.6591 15.8781C17.249 18.3264 17.044 19.5505 16.2319 20.2752C15.4199 21 14.2534 21 11.9204 21H8.0796C5.74664 21 4.58014 21 3.76809 20.2752C2.95603 19.5505 2.75097 18.3264 2.34085 15.8781Z" stroke="currentColor" stroke-width="1.5"/>
<path d="M5 6.5V6C5 3.23858 7.23858 1 10 1C12.7614 1 15 3.23858 15 6V6.5" stroke="currentColor" stroke-width="1.5"/>
<path d="M2.5 16.5H17.5" stroke="currentColor" stroke-width="1.5"/>
</svg>
