<svg viewBox="0 0 24 24" fill="none" xmlns="http://www.w3.org/2000/svg">
<path d="M17.0235 3.03358L16.0689 2.77924C13.369 2.05986 12.019 1.70018 10.9555 2.31074C9.89196 2.9213 9.53023 4.26367 8.80678 6.94841L7.78366 10.7452C7.0602 13.4299 6.69848 14.7723 7.3125 15.8298C7.92652 16.8874 9.27651 17.247 11.9765 17.9664L12.9311 18.2208C15.631 18.9401 16.981 19.2998 18.0445 18.6893C19.108 18.0787 19.4698 16.7363 20.1932 14.0516L21.2163 10.2548C21.9398 7.57005 22.3015 6.22768 21.6875 5.17016C21.0735 4.11264 19.7235 3.75295 17.0235 3.03358Z" stroke="black" stroke-width="1.5"/>
<path d="M16.8535 7.433C16.8535 8.24708 16.1898 8.90703 15.3711 8.90703C14.5524 8.90703 13.8887 8.24708 13.8887 7.433C13.8887 6.61892 14.5524 5.95898 15.3711 5.95898C16.1898 5.95898 16.8535 6.61892 16.8535 7.433Z" stroke="black" stroke-width="1.5"/>
<path d="M12 20.9463L11.0477 21.2056C8.35403 21.9391 7.00722 22.3059 5.94619 21.6833C4.88517 21.0608 4.52429 19.6921 3.80253 16.9547L2.78182 13.0834C2.06006 10.346 1.69918 8.97729 2.31177 7.89902C2.84167 6.96629 4 7.00025 5.5 7.00013" stroke="black" stroke-width="1.5" stroke-linecap="round"/>
</svg>
