<svg viewBox="0 0 22 22" fill="none" xmlns="http://www.w3.org/2000/svg">
<path d="M14 16C13.2005 16.6224 12.1503 17 11 17C9.84978 17 8.79953 16.6224 8 16" stroke="currentColor" stroke-width="1.5" stroke-linecap="round"/>
<path d="M1.35139 12.2135C0.99837 9.9162 0.82186 8.76763 1.25617 7.74938C1.69047 6.73112 2.65403 6.03443 4.58114 4.64106L6.02099 3.6C8.41829 1.86667 9.61698 1 11 1C12.3831 1 13.5817 1.86667 15.979 3.6L17.4189 4.64106C19.346 6.03443 20.3096 6.73112 20.7439 7.74938C21.1782 8.76763 21.0017 9.9162 20.6486 12.2135L20.3476 14.1724C19.8472 17.4289 19.5969 19.0572 18.429 20.0286C17.2611 21 15.5537 21 12.1388 21H9.86118C6.44634 21 4.73891 21 3.571 20.0286C2.40309 19.0572 2.15287 17.4289 1.65243 14.1724L1.35139 12.2135Z" stroke="currentColor" stroke-width="1.5" stroke-linejoin="round"/>
</svg>
