<svg viewBox="0 0 20 22" fill="none" xmlns="http://www.w3.org/2000/svg">
<path d="M10 21C9.1818 21 8.4002 20.6698 6.83693 20.0095C2.94564 18.3657 1 17.5438 1 16.1613C1 15.7742 1 9.0645 1 6M10 21C10.8182 21 11.5998 20.6698 13.1631 20.0095C17.0544 18.3657 19 17.5438 19 16.1613V6M10 21V10.3548" stroke="black" stroke-width="1.5" stroke-linecap="round" stroke-linejoin="round"/>
<path d="M6.32592 8.69138L3.40472 7.27785C1.80157 6.5021 1 6.11423 1 5.5C1 4.88577 1.80157 4.4979 3.40472 3.72215L6.32592 2.30862C8.1288 1.43621 9.0303 1 10 1C10.9697 1 11.8712 1.4362 13.6741 2.30862L16.5953 3.72215C18.1984 4.4979 19 4.88577 19 5.5C19 6.11423 18.1984 6.5021 16.5953 7.27785L13.6741 8.69138C11.8712 9.5638 10.9697 10 10 10C9.0303 10 8.1288 9.5638 6.32592 8.69138Z" stroke="black" stroke-width="1.5" stroke-linecap="round" stroke-linejoin="round"/>
<path d="M4 11L6 12" stroke="black" stroke-width="1.5" stroke-linecap="round" stroke-linejoin="round"/>
<path d="M15 3L5 8" stroke="black" stroke-width="1.5" stroke-linecap="round" stroke-linejoin="round"/>
</svg>
