<svg viewBox="0 0 117 85" fill="none" xmlns="http://www.w3.org/2000/svg">
<path d="M35.9642 5.90278C34.6714 4.48611 34.5539 3.65972 35.6116 2.125V2.00694C36.6694 0.354167 38.785 0 48.4224 0C59.7053 0 59.9404 0 58.4125 2.36111C57.7073 3.77778 55.9444 5.07639 54.6515 5.3125C53.3587 5.66667 51.1256 7.08333 49.8328 8.61806C48.4224 10.0347 43.1336 18.4167 37.9622 27.1528C32.7909 35.8889 27.1495 45.9236 25.3865 49.2292C23.7411 52.6528 22.3307 56.5486 22.3307 57.8472C22.3307 60.0903 23.1534 60.2083 39.3726 60.2083C55.8268 60.2083 56.532 60.0903 59.9404 57.2569C61.8209 55.6042 64.289 54.3056 65.2292 54.3056C66.1695 54.3056 66.9922 54.5417 66.9922 54.8958C66.9922 55.25 65.6994 57.8472 61.1157 66.1111L40.5479 65.9931L37.2571 72.0139C35.4941 75.3194 34.3188 78.9792 34.6714 80.2778C35.024 81.5764 35.7292 82.6389 36.4344 82.6389C37.1395 82.6389 37.6097 83.1111 37.6097 83.8194C37.6097 84.5278 33.1435 85 26.4443 85C19.7451 85 15.2789 84.5278 15.2789 83.8194C15.2789 83.1111 16.2192 82.6389 17.2769 82.6389C18.4522 82.7569 20.2152 81.8125 21.273 80.6319C22.3307 79.4514 24.5638 76.1458 26.2092 73.1944C27.9722 70.2431 29.3825 67.5278 29.3825 66.9375C29.3825 66.4653 22.8009 66.1111 14.6913 66.1111C6.58169 66.1111 0 65.875 0 65.5208C0 65.1667 0.470121 63.9861 1.05777 62.8056C1.64542 61.7431 3.52591 60.4444 5.40639 59.9722C8.22711 59.2639 10.1076 56.7847 16.3367 45.8056C20.5678 38.4861 27.0319 26.9167 30.7929 20.0694C36.9045 9.09028 37.4921 7.4375 35.9642 5.90278Z" fill="black"/>
<path d="M48.0698 27.8611C47.3647 26.5625 47.1296 24.7917 47.4822 23.9653C48.0698 23.0208 51.0081 22.5486 63.4663 22.5486L68.1675 30.8125C70.7532 35.2986 73.2213 39.0764 73.6914 39.0764C74.2791 38.9583 79.803 35.2986 97.55 22.5486H107.54C115.062 22.5486 117.413 22.9028 116.943 23.9653C116.59 24.7917 114.945 26.0903 113.182 26.7986C110.478 27.7431 107.305 32.7014 96.6098 52.7708C89.3229 66.3472 83.4464 78.3889 83.4464 79.4514C83.4464 80.6319 84.3867 82.0486 85.4444 82.6389C87.2074 83.5833 87.3249 83.9375 85.797 84.5278C84.8568 84.8819 78.9803 85 61.7033 84.5278L66.4045 82.1667C70.5181 80.0417 72.5161 77.2083 84.1516 56.7847C91.3209 44.1528 96.9624 33.4097 96.7273 32.8194C96.6098 32.3472 92.0261 35.1806 86.6197 39.0764C79.2153 44.3889 76.042 46.0417 72.8687 46.0417C68.9902 46.1597 68.4026 45.5694 59.5878 30.2222L54.6515 39.6667C51.8308 44.8611 48.6575 50.5278 47.7173 52.2986C46.1894 55.0139 45.0141 55.6042 41.1356 55.6042C38.5499 55.6042 36.4344 55.25 36.4344 54.6597C36.4344 54.1875 39.3726 48.5208 43.016 42.0278C48.54 31.9931 49.2451 29.8681 48.0698 27.8611Z" fill="black"/>
</svg>
