<svg viewBox="0 0 7 12" fill="none" xmlns="http://www.w3.org/2000/svg">
<path d="M6.73232 11.7359C6.90372 11.5667 7 11.3373 7 11.098C7 10.8588 6.90372 10.6294 6.73232 10.4602L2.2068 5.99455L6.73232 1.52889C6.89886 1.35874 6.99101 1.13086 6.98893 0.894314C6.98684 0.657772 6.89069 0.4315 6.72118 0.264234C6.55167 0.0969667 6.32237 0.0020895 6.08266 3.43323e-05C5.84294 -0.00202179 5.612 0.0889101 5.43958 0.253245L0.267679 5.35673C0.0962842 5.52591 0 5.75533 0 5.99455C0 6.23377 0.0962842 6.4632 0.267679 6.63238L5.43958 11.7359C5.61102 11.905 5.84352 12 6.08595 12C6.32837 12 6.56087 11.905 6.73232 11.7359Z" fill="currentColor"/>
</svg>
