<svg viewBox="0 0 21 22" fill="none" xmlns="http://www.w3.org/2000/svg">
<path d="M1.02992 13.7696C0.817271 15.1636 1.768 16.1312 2.93205 16.6134C7.39481 18.4622 13.6052 18.4622 18.0679 16.6134C19.232 16.1312 20.1827 15.1636 19.9701 13.7696C19.8394 12.9129 19.1932 12.1995 18.7144 11.5029C18.0873 10.5793 18.025 9.5718 18.0249 8.5C18.0249 4.35786 14.6559 1 10.5 1C6.34413 1 2.97513 4.35786 2.97513 8.5C2.97503 9.5718 2.91272 10.5793 2.28561 11.5029C1.80684 12.1995 1.16061 12.9129 1.02992 13.7696Z" stroke="black" stroke-width="1.5" stroke-linecap="round" stroke-linejoin="round"/>
<path d="M6.5 18C6.95849 19.7252 8.5755 21 10.5 21C12.4245 21 14.0415 19.7252 14.5 18" stroke="black" stroke-width="1.5" stroke-linecap="round" stroke-linejoin="round"/>
</svg>
