<svg viewBox="0 0 22 22" fill="none" xmlns="http://www.w3.org/2000/svg">
<path d="M11 21C16.5228 21 21 16.5228 21 11C21 5.47715 16.5228 1 11 1C5.47715 1 1 5.47715 1 11C1 16.5228 5.47715 21 11 21Z" stroke="currentColor" stroke-width="1.5"/>
<path d="M6.5 16C8.8317 13.5578 13.1432 13.4428 15.5 16M13.4951 8.5C13.4951 9.8807 12.3742 11 10.9915 11C9.6089 11 8.48797 9.8807 8.48797 8.5C8.48797 7.11929 9.6089 6 10.9915 6C12.3742 6 13.4951 7.11929 13.4951 8.5Z" stroke="currentColor" stroke-width="1.5" stroke-linecap="round"/>
</svg>
