<svg viewBox="0 0 22 22" fill="none" xmlns="http://www.w3.org/2000/svg">
<path d="M20.005 6.13358L19.5114 5.27698C19.1381 4.62915 18.9515 4.30524 18.6339 4.17607C18.3163 4.04691 17.9571 4.14883 17.2388 4.35267L16.0186 4.69637C15.56 4.80213 15.0788 4.74213 14.6601 4.52698L14.3232 4.33261C13.9641 4.10262 13.6879 3.76352 13.535 3.36493L13.2011 2.36755C12.9815 1.70753 12.8717 1.37752 12.6103 1.18876C12.349 1 12.0018 1 11.3074 1H10.1926C9.4983 1 9.1511 1 8.8897 1.18876C8.62835 1.37752 8.51856 1.70753 8.29899 2.36755L7.96503 3.36493C7.81215 3.76352 7.53595 4.10262 7.17687 4.33261L6.83999 4.52698C6.42124 4.74213 5.94009 4.80213 5.48148 4.69637L4.26125 4.35267C3.54291 4.14883 3.18375 4.04691 2.86617 4.17607C2.54859 4.30524 2.36195 4.62915 1.98865 5.27698L1.49507 6.13358C1.14516 6.74083 0.970199 7.04446 1.00416 7.36768C1.03811 7.6909 1.27233 7.95137 1.74076 8.47231L2.7718 9.62499C3.0238 9.94399 3.20271 10.5 3.20271 10.9999C3.20271 11.5 3.02386 12.0558 2.77183 12.3749L1.74076 13.5276C1.27233 14.0486 1.03812 14.309 1.00416 14.6323C0.970199 14.9555 1.14516 15.2591 1.49507 15.8663L1.98864 16.7229C2.36193 17.3707 2.54859 17.6947 2.86617 17.8238C3.18375 17.953 3.54292 17.8511 4.26127 17.6472L5.48144 17.3035C5.94013 17.1977 6.42137 17.2578 6.84017 17.473L7.177 17.6674C7.53601 17.8974 7.81214 18.2364 7.965 18.635L8.29899 19.6325C8.51856 20.2925 8.62835 20.6225 8.8897 20.8113C9.1511 21 9.4983 21 10.1926 21H11.3074C12.0018 21 12.349 21 12.6103 20.8113C12.8717 20.6225 12.9815 20.2925 13.2011 19.6325L13.5351 18.635C13.6879 18.2364 13.964 17.8974 14.3231 17.6674L14.6599 17.473C15.0787 17.2578 15.5599 17.1977 16.0186 17.3035L17.2388 17.6472C17.9571 17.8511 18.3163 17.953 18.6339 17.8238C18.9515 17.6947 19.1381 17.3707 19.5114 16.7229L20.005 15.8663C20.3549 15.2591 20.5298 14.9555 20.4959 14.6323C20.4619 14.309 20.2277 14.0486 19.7593 13.5276L18.7282 12.3749C18.4762 12.0558 18.2973 11.5 18.2973 10.9999C18.2973 10.5 18.4763 9.94399 18.7282 9.62499L19.7593 8.47231C20.2277 7.95137 20.4619 7.6909 20.4959 7.36768C20.5298 7.04446 20.3549 6.74083 20.005 6.13358Z" stroke="black" stroke-width="1.5" stroke-linecap="round"/>
<path d="M14.207 10.9922C14.207 12.9252 12.64 14.4922 10.707 14.4922C8.774 14.4922 7.20703 12.9252 7.20703 10.9922C7.20703 9.05919 8.774 7.49219 10.707 7.49219C12.64 7.49219 14.207 9.05919 14.207 10.9922Z" stroke="black" stroke-width="1.5"/>
</svg>
