<svg viewBox="0 0 22 22" fill="none" xmlns="http://www.w3.org/2000/svg">
<path d="M4 20C8.20998 15.2487 12.9412 8.94746 20 13.6734" stroke="black" stroke-width="1.5"/>
<path d="M16 3.5C16.4915 2.9943 17.7998 1 18.5 1M18.5 1C19.2002 1 20.5085 2.9943 21 3.5M18.5 1V9" stroke="black" stroke-width="1.5" stroke-linecap="round" stroke-linejoin="round"/>
<path d="M19.9999 12C19.998 16.147 19.9472 18.2703 18.6088 19.6088C17.2175 21 14.9783 21 10.5 21C6.02166 21 3.78249 21 2.39124 19.6088C1 18.2175 1 15.9783 1 11.5C1 7.02166 1 4.78249 2.39124 3.39124C3.78249 2 6.02166 2 10.5 2C10.6699 2 13 2.00008 13 2.00008" stroke="black" stroke-width="1.5" stroke-linecap="round"/>
</svg>
