<svg width="16" height="16" viewBox="0 0 16 16" fill="none" xmlns="http://www.w3.org/2000/svg">
<path d="M2 10.8784C2 10.5151 2.0933 10.1579 2.27096 9.84098L5.977 3.23022C6.30887 2.63823 6.88339 2.22131 7.54911 2.08937V2.08937C7.84681 2.03036 8.15319 2.03036 8.45089 2.08937V2.08937C9.11661 2.22131 9.69113 2.63823 10.023 3.23021L13.729 9.84098C13.9067 10.1579 14 10.5151 14 10.8784V10.8784C14 12.0501 13.0501 13 11.8784 13H4.12156C2.94986 13 2 12.0501 2 10.8784V10.8784Z" stroke="black" stroke-width="1.1"/>
<path d="M8 6.00002L8 8.66669" stroke="black" stroke-width="1.1" stroke-linecap="round" stroke-linejoin="round"/>
<path d="M8 10.6667L8 11" stroke="black" stroke-width="1.1" stroke-linecap="round" stroke-linejoin="round"/>
</svg>
